<?xml version="1.0" encoding="UTF-8" standalone="no"?>
<!-- Created with Inkscape (http://www.inkscape.org/) -->

<svg
   width="150px"
   height="150px"
   viewBox="0 0 150 150"
   version="1.1"
   id="SVGRoot"
   sodipodi:docname="commander_dark.svg"
   inkscape:version="1.2.1 (9c6d41e410, 2022-07-14)"
   xml:space="preserve"
   xmlns:inkscape="http://www.inkscape.org/namespaces/inkscape"
   xmlns:sodipodi="http://sodipodi.sourceforge.net/DTD/sodipodi-0.dtd"
   xmlns="http://www.w3.org/2000/svg"
   xmlns:svg="http://www.w3.org/2000/svg"><sodipodi:namedview
     id="namedview1054"
     pagecolor="#505050"
     bordercolor="#ffffff"
     borderopacity="1"
     inkscape:showpageshadow="0"
     inkscape:pageopacity="0"
     inkscape:pagecheckerboard="1"
     inkscape:deskcolor="#505050"
     inkscape:document-units="px"
     showgrid="false"
     inkscape:zoom="2.9540685"
     inkscape:cx="5.2470009"
     inkscape:cy="104.6015"
     inkscape:window-width="1920"
     inkscape:window-height="1009"
     inkscape:window-x="-8"
     inkscape:window-y="-8"
     inkscape:window-maximized="1"
     inkscape:current-layer="layer1"
     showguides="true" /><defs
     id="defs1049" /><g
     inkscape:label="Camada 1"
     inkscape:groupmode="layer"
     id="layer1"><path
       style="fill:#000000;stroke-width:0.500201"
       d="m 78.262139,127.15362 c 0.0612,-9.76562 -0.20971,-9.15617 6.81916,-15.34248 15.213731,-13.390066 22.787731,-24.662861 25.092131,-37.346003 1.03756,-5.710547 1.15481,-9.122379 0.80102,-23.30708 l -0.36368,-14.581152 -6.9733,-0.04771 c -10.184651,-0.06969 -15.736761,-1.330376 -21.050561,-4.779828 -4.02743,-2.614402 -4.99858,-5.816883 -3.81866,-12.592495 l 0.54319,-3.119186 3.83357,1.750621 c 9.70595,4.432264 15.67122,6.024101 25.005661,6.672786 3.76155,0.261404 8.37559,0.620579 10.25342,0.798167 l 3.41423,0.322885 -0.21304,23.816246 c -0.23325,26.074162 -0.31463,26.881717 -3.63532,36.071174 -5.40412,14.954985 -13.70158,25.151645 -36.368531,44.692945 l -3.37636,2.91077 0.0371,-5.91966 z m -14.396482,-0.0927 C 41.798114,108.34331 31.370971,93.042674 28.363325,74.965338 27.757149,71.321943 27.518018,65.002276 27.338236,47.874632 l -0.234482,-22.338795 3.176652,-0.299362 c 1.747159,-0.164649 6.411019,-0.536757 10.364134,-0.826904 8.516938,-0.62512 14.788299,-2.098774 21.220929,-4.986526 2.532678,-1.136976 5.3187,-2.381049 6.19116,-2.764606 l 1.5863,-0.697377 0.53956,2.515893 c 0.74494,3.473553 0.67509,7.676628 -0.16083,9.677265 -0.76159,1.822752 -3.880223,4.220313 -7.517731,5.779531 -3.505863,1.502788 -8.877306,2.398713 -16.66689,2.779937 l -7.127867,0.348841 v 1.367702 c 0,0.752236 -0.241139,6.54545 -0.535864,12.873808 -0.572249,12.287364 -0.192012,19.827217 1.315705,26.089581 1.119256,4.64888 5.563996,13.570454 9.15914,18.384414 3.404647,4.558886 11.132963,12.454226 17.697137,18.079586 l 4.37676,3.7508 v 7.44004 c 0,4.09201 -0.10293,7.44003 -0.22873,7.44003 -0.1258,0 -3.10825,-2.4424 -6.627662,-5.42756 z m 2.710927,-20.35237 C 59.858845,102.20197 51.592534,92.287784 47.987923,84.414274 44.926943,77.72821 44.557239,75.066939 44.332632,58.102055 l -0.206705,-15.612783 2.668785,0.356645 c 1.467832,0.196154 6.183369,0.356644 10.478972,0.356644 h 7.810186 l 0.327251,6.002415 c 0.345395,6.335222 1.487993,21.608737 2.338728,31.262576 0.2788,3.163772 0.73002,9.466312 1.0027,14.005632 0.27268,4.53933 0.67636,9.660146 0.89707,11.379586 0.22071,1.71945 0.38107,3.12626 0.35637,3.12626 -0.0247,0 -1.56794,-1.02171 -3.429405,-2.27047 z m 13.151655,0.95616 c 0.007,-4.15538 1.16742,-22.213673 2.2611,-35.200388 0.68348,-8.115764 1.38779,-17.935126 1.56513,-21.820804 l 0.32246,-7.064868 9.55405,-0.247769 c 5.25473,-0.136274 9.964931,-0.420311 10.467131,-0.631195 0.87522,-0.367525 0.90501,0.277979 0.71843,15.56596 -0.17724,14.523297 -0.29279,16.304583 -1.29233,19.921969 -2.59436,9.389167 -9.203591,19.073629 -17.997691,26.371895 -6.0325,5.00638 -5.60125,4.76718 -5.59828,3.1052 z"
       id="path300" /></g></svg>
