<?xml version="1.0" encoding="UTF-8" standalone="no"?>
<!-- Created with Inkscape (http://www.inkscape.org/) -->

<svg
   width="150px"
   height="150px"
   viewBox="0 0 150 150"
   version="1.1"
   id="SVGRoot"
   sodipodi:docname="icone_terreno_branco.svg"
   inkscape:version="1.2.1 (9c6d41e410, 2022-07-14)"
   xml:space="preserve"
   xmlns:inkscape="http://www.inkscape.org/namespaces/inkscape"
   xmlns:sodipodi="http://sodipodi.sourceforge.net/DTD/sodipodi-0.dtd"
   xmlns="http://www.w3.org/2000/svg"
   xmlns:svg="http://www.w3.org/2000/svg"><sodipodi:namedview
     id="namedview1054"
     pagecolor="#505050"
     bordercolor="#ffffff"
     borderopacity="1"
     inkscape:showpageshadow="0"
     inkscape:pageopacity="0"
     inkscape:pagecheckerboard="1"
     inkscape:deskcolor="#505050"
     inkscape:document-units="px"
     showgrid="false"
     inkscape:zoom="4"
     inkscape:cx="33.375"
     inkscape:cy="88.25"
     inkscape:window-width="1920"
     inkscape:window-height="1009"
     inkscape:window-x="-8"
     inkscape:window-y="-8"
     inkscape:window-maximized="1"
     inkscape:current-layer="layer1"
     showguides="true" /><defs
     id="defs1049" /><g
     inkscape:label="Camada 1"
     inkscape:groupmode="layer"
     id="layer1"><path
       style="fill:#000000;stroke-width:0.197652"
       d="m 67.231099,114.32232 c 0,-0.37967 0.89064,-2.15817 2.07819,-4.14992 0.7778,-1.30452 1.60678,-2.8866 1.84217,-3.51574 0.50377,-1.34643 0.57546,-3.43933 0.14566,-4.25188 -0.15528,-0.29355 -1.09633,-1.33422 -2.09123,-2.31259 -2.13666,-2.101171 -2.86336,-3.085611 -3.16653,-4.289641 -0.28691,-1.1394 -0.0108,-2.25802 0.90082,-3.65 l 0.66922,-1.02182 -0.3831,-0.48703 c -0.55527,-0.70591 -1.86586,-1.16245 -3.35527,-1.16879 -1.616,-0.007 -2.77676,0.30553 -3.54875,0.95511 l -0.60194,0.50651 v 2.93433 c 0,1.61389 -0.0877,3.16514 -0.195,3.44722 -0.24905,0.65505 -1.55406,1.23424 -3.65921,1.62402 -2.25305,0.41717 -5.08752,0.22885 -10.69507,-0.71057 -2.59697,-0.43507 -4.94411,-0.81955 -5.21588,-0.8544 l -0.49413,-0.0634 0.59295,-0.31714 c 0.32613,-0.17442 1.79369,-0.74027 3.26125,-1.25744 4.62951,-1.63146 6.2508,-2.69866 7.13122,-4.69409 0.51165,-1.15965 0.61289,-3.38408 0.21731,-4.77495 -0.19068,-0.67043 -0.16778,-0.86314 0.16686,-1.40461 0.51925,-0.84016 2.03641,-2.2395 3.43453,-3.1678 1.05759,-0.70219 1.13226,-0.80118 1.02635,-1.36048 -0.0628,-0.33175 -0.40394,-1.17757 -0.75806,-1.8796 -0.88442,-1.75337 -1.91248,-2.47896 -3.51232,-2.47896 -1.41779,0 -1.76656,0.23471 -3.65403,2.4591 -1.69158,1.99354 -2.16286,2.26852 -3.65584,2.13314 -2.84594,-0.25806 -4.57781,-2.04596 -9.08021,-9.37397 -0.88116,-1.43416 -2.04493,-3.09208 -2.58616,-3.68427 -0.54123,-0.59219 -0.98405,-1.12615 -0.98405,-1.18658 0,-0.31076 2.31336,0.63338 4.05186,1.65367 3.12384,1.83332 4.14798,2.24298 5.63307,2.25323 1.65857,0.0114 2.03359,-0.24724 3.53395,-2.43783 2.20227,-3.2154 3.44856,-3.86785 5.71686,-2.99286 0.61925,0.23888 1.55994,0.58167 2.09043,0.76175 l 0.96452,0.32743 0.76771,-0.86509 c 1.77352,-1.99851 1.72193,-5.10942 -0.12089,-7.28976 -1.13222,-1.33959 -2.73161,-1.72479 -4.76357,-1.14727 -0.5361,0.15237 -1.29652,0.33208 -1.68983,0.39937 -0.70102,0.11992 -0.72304,0.10375 -1.11802,-0.82058 -0.7115,-1.66505 -0.89485,-2.67471 -0.88906,-4.89594 0.006,-2.39913 0.11321,-3.11383 1.24229,-8.30137 0.42589,-1.95675 0.82935,-4.09139 0.89656,-4.74364 0.0672,-0.65225 0.16882,-1.31933 0.22578,-1.48239 0.14946,-0.42787 0.56335,0.82387 1.33976,4.05186 1.07972,4.48899 1.73627,5.86655 3.22588,6.76837 1.04869,0.63489 1.99507,0.5712 3.6536,-0.24586 3.00672,-1.48125 4.6719,-0.66105 7.12695,3.51045 l 1.11843,1.90036 0.74197,-0.11058 c 1.86571,-0.27805 3.32196,-1.3163 4.11245,-2.932 0.46732,-0.95517 0.51709,-1.25537 0.45482,-2.7437 -0.0806,-1.92735 -0.31723,-2.37236 -1.84946,-3.47874 -0.52693,-0.38048 -1.31443,-1.0133 -1.75001,-1.40627 l -0.79195,-0.71449 1.16346,-1.75616 c 1.43256,-2.16235 3.91114,-4.677773 6.49969,-6.596334 2.15082,-1.594118 7.84491,-5.187872 7.98999,-5.042785 0.11223,0.112225 -0.61851,1.226234 -2.18822,3.335933 -1.80428,2.424977 -2.52209,4.049897 -2.52209,5.709306 0,1.76014 0.32506,2.37488 2.66459,5.03918 3.03674,3.45827 3.57194,5.1367 2.42721,7.6119 l -0.5273,1.14016 0.58602,0.66744 c 1.51705,1.72783 5.0068,2.15901 6.37778,0.78803 0.66948,-0.66949 0.7867,-1.54479 0.51123,-3.81765 -0.31576,-2.60536 -0.2471,-2.81018 1.15032,-3.43167 2.81769,-1.25313 6.72089,-1.24789 14.086071,0.0189 2.55465,0.4394 4.91165,0.83281 5.23777,0.87425 0.58883,0.0748 0.58648,0.0784 -0.33906,0.51404 -0.51261,0.24129 -2.45398,0.83434 -4.31416,1.31788 -3.53795,0.91966 -4.89207,1.50341 -5.891301,2.53969 l -0.59836,0.62055 0.41482,1.18591 c 0.296061,0.84639 0.418751,1.69519 0.428561,2.96477 0.012,1.558 -0.057,1.93304 -0.555701,3.02052 -0.67365,1.46891 -2.36688,3.14741 -3.87117,3.83752 -0.54281,0.24902 -0.98606,0.54223 -0.985,0.65157 0.003,0.34966 0.92547,2.15169 1.46696,2.86692 1.14335,1.5102 2.83459,1.9845 4.053101,1.13668 0.35153,-0.24459 1.14701,-1.19417 1.76771,-2.11017 1.48472,-2.19105 1.86148,-2.46052 3.44013,-2.46052 1.60334,0 2.74487,0.54063 4.38906,2.0787 1.52161,1.42339 2.65588,3.05228 5.1417,7.38387 2.13131,3.71384 2.49998,4.29491 3.22793,5.08747 0.27353,0.29781 0.45935,0.57339 0.41292,0.6124 -0.0464,0.039 -1.27194,-0.57444 -2.72336,-1.36319 -6.9196,-3.76039 -10.52675,-3.51961 -11.77043,0.78568 -0.33938,1.17482 -0.91503,1.40015 -3.57693,1.40015 -1.195791,0 -2.734541,-0.12428 -3.419451,-0.27619 l -1.24528,-0.27618 -0.70596,0.67149 c -1.93706,1.84248 -1.9008,3.90716 0.10383,5.91179 1.77246,1.77246 4.43391,2.52292 6.747791,1.9027 1.27165,-0.34086 1.27285,-0.33982 1.56923,1.36212 0.51325,2.94733 0.24092,6.66073 -0.94902,12.940081 -0.3193,1.68498 -0.64196,3.53056 -0.71702,4.10128 -0.0751,0.57072 -0.20493,1.03767 -0.28859,1.03767 -0.29409,0 -1.17867,-2.30011 -1.878571,-4.88469 -0.38898,-1.436441 -0.87458,-3.002101 -1.07911,-3.479261 -0.71241,-1.66197 -2.17573,-2.9022 -3.42426,-2.9022 -0.25115,0 -1.12121,0.32396 -1.93345,0.7199 -1.87067,0.9119 -2.9082,0.96277 -4.19964,0.20594 -0.88456,-0.51839 -1.27247,-1.0223 -3.58283,-4.65425 -0.53586,-0.84238 -0.56777,-0.85952 -1.371,-0.73611 -1.39522,0.21436 -2.53388,0.924 -3.19242,1.98957 -0.52728,0.85319 -0.59378,1.1321 -0.58646,2.45982 0.007,1.18775 0.11572,1.73042 0.52777,2.62344 0.59285,1.28489 1.88641,2.67208 2.97053,3.18555 l 0.73942,0.350221 -0.67388,1.32571 c -1.39164,2.73775 -3.63907,4.93531 -8.32957,8.14469 -1.50932,1.03273 -3.56899,2.52038 -4.57703,3.30588 -1.00805,0.78551 -1.83282,1.38767 -1.83282,1.33815 z m 10.81338,-25.796581 c 6.5295,-1.53015 11.82504,-7.00351 13.38242,-13.83179 1.80351,-7.9074 -2.14474,-16.33714 -9.25774,-19.76583 -2.87666,-1.38664 -4.28041,-1.67571 -8.11907,-1.67194 -2.80683,0.003 -3.64651,0.0754 -5.09968,0.44135 -6.40078,1.6118 -10.91449,6.19035 -12.6127,12.79388 -0.64233,2.49773 -0.64229,6.73775 9e-5,9.1908 1.24472,4.75323 4.3045,8.71409 8.52148,11.03102 1.46114,0.80278 4.13761,1.71633 5.83073,1.99016 0.76096,0.12307 1.60592,0.26082 1.87769,0.30609 0.92995,0.15493 3.85324,-0.10327 5.47678,-0.48374 z m -7.058,-1.67664 c -8.8795,-1.79535 -14.64786,-9.32991 -13.63533,-17.81027 0.47159,-3.94969 1.76958,-6.79113 4.24232,-9.28691 3.19025,-3.21995 7.36658,-4.82314 12.56435,-4.82314 6.61404,0 11.87876,3.23579 14.60687,8.97763 1.09563,2.30597 1.4799,4.10603 1.45901,6.83451 -0.0629,8.21144 -4.94547,14.56805 -12.36049,16.09198 -1.81714,0.37346 -5.07185,0.38113 -6.87673,0.0162 z"
       id="path303" /></g></svg>
