<?xml version="1.0" encoding="UTF-8" standalone="no"?>
<!-- Created with Inkscape (http://www.inkscape.org/) -->

<svg
   width="150px"
   height="150px"
   viewBox="0 0 150 150"
   version="1.1"
   id="SVGRoot"
   sodipodi:docname="icone_terreno_verde.svg"
   inkscape:version="1.2.1 (9c6d41e410, 2022-07-14)"
   xml:space="preserve"
   xmlns:inkscape="http://www.inkscape.org/namespaces/inkscape"
   xmlns:sodipodi="http://sodipodi.sourceforge.net/DTD/sodipodi-0.dtd"
   xmlns="http://www.w3.org/2000/svg"
   xmlns:svg="http://www.w3.org/2000/svg"><sodipodi:namedview
     id="namedview1054"
     pagecolor="#505050"
     bordercolor="#ffffff"
     borderopacity="1"
     inkscape:showpageshadow="0"
     inkscape:pageopacity="0"
     inkscape:pagecheckerboard="1"
     inkscape:deskcolor="#505050"
     inkscape:document-units="px"
     showgrid="false"
     inkscape:zoom="2.8284271"
     inkscape:cx="-5.833631"
     inkscape:cy="102.17693"
     inkscape:window-width="1920"
     inkscape:window-height="1009"
     inkscape:window-x="-8"
     inkscape:window-y="-8"
     inkscape:window-maximized="1"
     inkscape:current-layer="layer1"
     showguides="true"><sodipodi:guide
       position="64.700271,74.781516"
       orientation="0,-1"
       id="guide300"
       inkscape:locked="false" /><sodipodi:guide
       position="74.953319,78.228662"
       orientation="1,0"
       id="guide302"
       inkscape:locked="false" /></sodipodi:namedview><defs
     id="defs1049" /><g
     inkscape:label="Camada 1"
     inkscape:groupmode="layer"
     id="layer1"><path
       style="fill:#000000;stroke-width:0.28375"
       d="m 72.631959,120.28928 c -0.782831,-0.54831 -1.841867,-2.40533 -2.45375,-4.30264 -0.264237,-0.81933 -0.617465,-1.48969 -0.78496,-1.48969 -0.425406,0 -2.320095,2.10154 -3.370533,3.73851 -0.483163,0.75294 -1.046137,1.36899 -1.251055,1.36899 -0.352383,0 -0.541939,-0.41018 -1.770274,-3.83062 -0.483714,-1.34696 -0.580884,-1.43675 -1.920301,-1.77438 -2.312925,-0.58303 -5.562607,-0.85568 -7.227672,-0.6064 -3.140741,0.4702 -5.266001,0.58342 -5.958742,0.31744 -0.686801,-0.26371 -0.650684,-0.31009 1.134999,-1.45738 1.014404,-0.65175 3.024159,-1.76625 4.466119,-2.47667 2.476118,-1.21991 2.747859,-1.29031 4.89205,-1.26736 1.813767,0.0194 2.57902,-0.11222 3.805559,-0.65466 2.644117,-1.16935 2.726249,-1.33075 2.726249,-5.35721 0,-2.21763 -0.158358,-4.095233 -0.434963,-5.157186 -1.272415,-4.885137 -4.485085,-7.637906 -10.925474,-9.361466 -1.45761,-0.390082 -2.673432,-0.680091 -2.701826,-0.644463 -0.02839,0.03562 -0.305128,0.645853 -0.614963,1.356064 -1.184505,2.715138 -3.395623,4.461321 -6.607834,5.218397 -4.296765,1.01269 -6.719709,0.320549 -9.453645,-2.70055 -3.39126,-3.747464 -4.276814,-7.336355 -2.655753,-10.762997 0.406222,-0.858683 1.245001,-2.055743 1.863952,-2.660132 l 1.125367,-1.098892 -1.112211,-1.407051 c -2.045977,-2.588356 -2.467592,-6.074208 -1.081563,-8.94221 0.785413,-1.625196 3.036224,-3.597982 4.606723,-4.037694 1.215341,-0.340276 1.271606,-0.404539 1.461208,-1.668899 0.23618,-1.574958 0.69074,-2.508752 1.663622,-3.417554 0.710567,-0.663761 0.715023,-0.692769 0.239772,-1.560623 -0.365266,-0.667009 -0.484251,-1.581489 -0.484251,-3.721784 0,-2.53344 0.08515,-3.010887 0.794602,-4.45561 1.009768,-2.056274 3.140109,-3.998832 5.101646,-4.651955 3.23201,-1.076144 7.067819,-0.443333 9.600971,1.583915 l 1.025991,0.821087 0.767332,-1.955801 c 2.650709,-6.756218 7.459675,-10.054492 14.631287,-10.035011 4.472614,0.01215 6.930774,1.089805 10.64061,4.664837 l 1.986247,1.914073 1.986247,-0.387641 c 2.672268,-0.521527 5.390388,-0.504563 7.24163,0.0452 3.94869,1.172635 7.252948,4.607979 8.948828,9.303838 0.61417,1.700621 0.65757,1.745351 2.2336,2.301822 1.93396,0.682849 3.16244,1.79103 3.5559,3.207688 0.38603,1.38991 0.35655,2.039625 -0.13124,2.892928 -0.62062,1.08566 -0.53265,1.290911 0.96521,2.252081 5.30538,3.404456 7.47288,9.411438 5.48043,15.188443 l -0.77943,2.259921 1.03929,0.938927 c 1.39188,1.257482 1.94886,2.530922 1.94886,4.455717 0,1.956159 -0.65709,3.349579 -2.26428,4.801574 -1.46991,1.327977 -2.18978,1.60072 -4.20949,1.594874 -1.99782,-0.0058 -3.51361,-0.796434 -4.7252,-2.464703 l -0.86038,-1.184697 -2.55375,-0.0786 c -1.40456,-0.04323 -3.12834,-0.04919 -3.83062,-0.01325 -2.300219,0.117717 -11.203155,2.700377 -12.714142,3.688254 -1.308797,0.85569 -2.238824,3.557026 -3.023184,8.781091 -0.784051,5.222018 -0.475045,8.833518 0.88443,10.336768 0.666139,0.73659 2.248058,1.54326 4.774343,2.4346 1.530429,0.53997 2.847055,0.74815 5.685096,0.89891 2.780417,0.14769 3.97282,0.33254 4.823743,0.74779 1.347434,0.65754 1.689304,1.54472 0.595233,1.54472 -1.217275,0 -4.998014,0.6253 -4.998014,0.82663 0,0.10458 0.699355,0.53314 1.554125,0.95236 1.079125,0.52925 1.505794,0.88815 1.395997,1.17428 -0.39587,1.03162 -4.005724,1.33784 -7.064491,0.59927 -0.936374,-0.2261 -2.242737,-0.41563 -2.903028,-0.42119 -1.081335,-0.009 -1.217978,0.0674 -1.376265,0.7702 -0.640354,2.84334 -0.690019,2.94519 -1.339582,2.74699 -1.490145,-0.45468 -2.463062,-1.01579 -4.59611,-2.65068 -1.248498,-0.95692 -2.579392,-1.82039 -2.957539,-1.91882 -0.847997,-0.22073 -1.57796,0.61292 -2.952313,3.37168 -0.917007,1.84072 -0.968684,1.88968 -1.55844,1.4766 z M 65.790067,84.375588 c -0.461011,-1.544676 -2.607639,-3.75985 -4.616076,-4.763478 -1.420626,-0.709896 -2.083607,-0.867604 -3.647266,-0.867604 -1.745749,0 -5.914598,0.974544 -5.583822,1.305319 0.07182,0.07182 0.818361,0.243341 1.658981,0.381161 3.292971,0.539891 6.905409,2.460492 10.60839,5.640102 l 1.702497,1.461872 0.0934,-1.06017 c 0.05137,-0.583092 -0.04588,-1.526834 -0.216104,-2.097202 z m 24.909187,-3.730172 3.415097,-0.933519 -1.282988,-1.617279 -1.282988,-1.617282 -1.325945,0.901957 c -4.253162,2.893165 -7.710308,5.685735 -7.710308,6.228137 0,0.114265 1.073709,-0.295401 2.386017,-0.910368 1.31231,-0.614971 3.922812,-1.53821 5.801115,-2.051646 z m -5.812281,-9.53572 c 1.315472,-1.221511 2.442298,-3.469727 2.44612,-4.880434 0.0028,-1.007444 -0.03369,-1.039939 -2.338162,-2.086022 -1.287513,-0.584447 -2.500543,-1.127161 -2.695621,-1.206029 -0.276207,-0.11167 -0.354687,1.0291 -0.354687,5.155651 v 5.299046 l 0.922186,-0.631332 c 0.507203,-0.34723 1.416277,-1.090126 2.020164,-1.65088 z M 62.39246,70.637846 c -0.776168,-1.025295 -1.45742,-2.002793 -1.513897,-2.172223 -0.06901,-0.20702 -0.642585,-0.138228 -1.748942,0.209765 -1.932085,0.607715 -3.389772,1.520438 -3.521613,2.205047 -0.07665,0.39801 0.129591,0.488194 1.133034,0.495438 0.674706,0.0049 2.248239,0.248661 3.496737,0.541757 3.787022,0.889036 3.793574,0.885143 2.154681,-1.279784 z m 8.991891,-7.371937 c -0.04608,-0.04608 -0.881056,-0.173989 -1.855498,-0.284234 l -1.771709,-0.200447 v 0.867792 c 0,0.657541 0.429673,1.362469 1.773435,2.90952 l 1.773434,2.041728 0.08206,-2.625285 c 0.04514,-1.443905 0.04436,-2.66299 -0.0017,-2.709074 z"
       id="path302" /></g></svg>
