<?xml version="1.0" encoding="UTF-8" standalone="no"?>
<!-- Created with Inkscape (http://www.inkscape.org/) -->

<svg
   width="150px"
   height="150px"
   viewBox="0 0 150 150"
   version="1.1"
   id="SVGRoot"
   sodipodi:docname="icone_terreno_azul.svg"
   inkscape:version="1.2.1 (9c6d41e410, 2022-07-14)"
   xml:space="preserve"
   xmlns:inkscape="http://www.inkscape.org/namespaces/inkscape"
   xmlns:sodipodi="http://sodipodi.sourceforge.net/DTD/sodipodi-0.dtd"
   xmlns="http://www.w3.org/2000/svg"
   xmlns:svg="http://www.w3.org/2000/svg"><sodipodi:namedview
     id="namedview1054"
     pagecolor="#505050"
     bordercolor="#ffffff"
     borderopacity="1"
     inkscape:showpageshadow="0"
     inkscape:pageopacity="0"
     inkscape:pagecheckerboard="1"
     inkscape:deskcolor="#505050"
     inkscape:document-units="px"
     showgrid="false"
     inkscape:zoom="2.8284271"
     inkscape:cx="18.561553"
     inkscape:cy="112.07643"
     inkscape:window-width="1920"
     inkscape:window-height="1009"
     inkscape:window-x="-8"
     inkscape:window-y="-8"
     inkscape:window-maximized="1"
     inkscape:current-layer="layer1"
     showguides="true"><sodipodi:guide
       position="64.700271,74.781516"
       orientation="0,-1"
       id="guide300"
       inkscape:locked="false" /><sodipodi:guide
       position="74.953319,78.228662"
       orientation="1,0"
       id="guide302"
       inkscape:locked="false" /></sodipodi:namedview><defs
     id="defs1049" /><g
     inkscape:label="Camada 1"
     inkscape:groupmode="layer"
     id="layer1"><path
       style="fill:#000000;stroke-width:0.192164"
       d="m 71.852483,111.85836 c -2.402516,-0.24165 -3.888037,-0.54508 -5.565327,-1.13676 -1.673085,-0.5902 -4.266073,-1.85733 -4.523293,-2.21043 -0.05284,-0.0725 -0.301073,-0.23994 -0.551619,-0.37199 -1.382994,-0.72891 -4.467006,-4.03787 -5.74018,-6.15886 -1.894474,-3.156028 -2.862797,-5.976091 -3.530106,-10.280786 -0.244685,-1.578415 -0.119689,-8.694441 0.170459,-9.704291 0.106282,-0.369916 0.341167,-1.321128 0.52196,-2.113806 0.905345,-3.969381 3.139258,-9.202592 5.973564,-13.993797 0.520319,-0.879562 1.032508,-1.747743 1.138198,-1.929288 0.380134,-0.652958 3.936774,-5.89816 4.317954,-6.36796 0.214385,-0.264225 0.825,-1.04249 1.356925,-1.729477 1.097957,-1.418026 1.922109,-2.452102 2.203853,-2.765206 0.10569,-0.117455 0.482714,-0.559402 0.837834,-0.982103 2.898471,-3.450093 6.851496,-7.435617 10.635904,-10.723349 1.551046,-1.347483 1.817672,-1.506158 1.597179,-0.950518 -0.0734,0.184958 -0.297192,1.244263 -0.497319,2.354012 -0.20013,1.109748 -0.408493,2.190671 -0.463029,2.402052 -0.05454,0.21138 -0.224827,1.502577 -0.378422,2.869325 -0.245449,2.184122 -0.24475,2.763768 0.0058,4.787443 0.156777,1.266345 0.418967,2.742314 0.582647,3.279928 0.16368,0.537615 0.415373,1.366615 0.559317,1.842222 0.293254,0.96894 1.160931,2.875097 1.968132,4.323694 0.50592,0.907922 1.948153,3.154878 2.158496,3.362873 0.05344,0.05285 0.356101,0.485215 0.672578,0.960821 0.316477,0.475606 0.62237,0.907976 0.679764,0.960821 0.05739,0.05284 0.527162,0.744636 1.04393,1.537313 0.516768,0.792677 1.904057,2.781577 3.082865,4.419776 1.178808,1.6382 2.391371,3.410915 2.694585,3.939366 0.303214,0.528452 0.598688,1.004058 0.656608,1.056903 0.155789,0.14214 0.667121,1.234286 1.43951,3.074627 1.683452,4.011095 2.023246,8.556444 0.998402,13.35541 -0.590017,2.762828 -1.869114,5.549535 -3.66043,7.974815 -0.775338,1.04974 -3.138481,3.51083 -4.247533,4.42359 -1.113617,0.91651 -3.777658,2.55311 -4.523797,2.77909 -0.25843,0.0783 -0.729296,0.25326 -1.046366,0.38888 -0.911072,0.38966 -2.3985,0.81481 -3.65112,1.04357 -1.245779,0.22751 -5.66785,0.40783 -6.91791,0.28209 z M 89.572084,92.819894 c 0.729926,-0.445738 1.210407,-1.030982 1.708643,-2.08118 0.298218,-0.628595 0.362208,-1.188847 0.351176,-3.074627 -0.01255,-2.144393 -0.06326,-2.448979 -0.723746,-4.346916 -1.182936,-3.399205 -2.736185,-5.934074 -4.33272,-7.070907 l -0.557253,-0.396798 0.183888,0.814958 c 0.381171,1.689285 -0.282557,5.094269 -1.978008,10.147353 -0.812798,2.422447 -0.901219,3.278701 -0.450073,4.358445 0.463042,1.10822 0.888984,1.472126 2.394723,2.045941 0.612375,0.23337 2.786915,-0.01982 3.40337,-0.396269 z"
       id="path304" /></g></svg>
