<?xml version="1.0" encoding="UTF-8" standalone="no"?>
<!-- Created with Inkscape (http://www.inkscape.org/) -->

<svg
   width="150px"
   height="150px"
   viewBox="0 0 150 150"
   version="1.1"
   id="SVGRoot"
   sodipodi:docname="icone_terreno_vermelho.svg"
   inkscape:version="1.2.1 (9c6d41e410, 2022-07-14)"
   xml:space="preserve"
   xmlns:inkscape="http://www.inkscape.org/namespaces/inkscape"
   xmlns:sodipodi="http://sodipodi.sourceforge.net/DTD/sodipodi-0.dtd"
   xmlns="http://www.w3.org/2000/svg"
   xmlns:svg="http://www.w3.org/2000/svg"><sodipodi:namedview
     id="namedview1054"
     pagecolor="#505050"
     bordercolor="#ffffff"
     borderopacity="1"
     inkscape:showpageshadow="0"
     inkscape:pageopacity="0"
     inkscape:pagecheckerboard="1"
     inkscape:deskcolor="#505050"
     inkscape:document-units="px"
     showgrid="false"
     inkscape:zoom="2.8284271"
     inkscape:cx="-77.251417"
     inkscape:cy="126.21856"
     inkscape:window-width="1920"
     inkscape:window-height="1009"
     inkscape:window-x="-8"
     inkscape:window-y="-8"
     inkscape:window-maximized="1"
     inkscape:current-layer="layer1"
     showguides="true"><sodipodi:guide
       position="64.700271,74.781516"
       orientation="0,-1"
       id="guide300"
       inkscape:locked="false" /><sodipodi:guide
       position="74.953319,78.228662"
       orientation="1,0"
       id="guide302"
       inkscape:locked="false" /></sodipodi:namedview><defs
     id="defs1049" /><g
     inkscape:label="Camada 1"
     inkscape:groupmode="layer"
     id="layer1"><path
       style="fill:#000000;stroke-width:0.234256"
       d="m 59.746716,108.36756 c -5.178534,-1.14687 -9.709153,-5.10127 -12.292576,-10.729179 -1.35727,-2.956771 -1.763852,-4.915582 -1.75649,-8.462286 0.0056,-2.678735 0.08428,-3.285344 0.653932,-5.039094 1.533021,-4.719645 4.44764,-8.342708 8.507569,-10.575465 4.322313,-2.377057 9.57258,-2.878146 13.848885,-1.321743 3.675158,1.337607 8.390425,0.07884 14.347199,-3.83008 3.631889,-2.383295 3.62648,-2.383073 3.411655,-0.141011 -0.268765,2.805001 -0.818621,4.862664 -1.893617,7.086259 -1.31718,2.724542 -2.616162,4.164439 -5.485813,6.080929 -3.176539,2.121443 -4.231202,3.375191 -4.231202,5.029913 0,2.201398 4.200067,3.81628 6.862497,2.638563 1.32048,-0.584114 3.173981,-2.276315 4.136901,-3.776897 1.317072,-2.052478 1.650452,-3.474099 1.650452,-7.037951 0,-5.070374 0.631084,-7.266983 2.771886,-9.648069 1.813527,-2.017082 2.007841,-1.526144 0.828877,2.094185 -0.305487,0.938078 -0.552192,2.150355 -0.548233,2.69395 0.0077,1.059863 0.879593,3.475361 1.30442,3.613844 0.935754,0.305035 3.183707,-3.719953 4.045532,-7.243581 0.658921,-2.694039 0.64696,-2.952613 -0.144942,-3.133349 -2.923785,-0.667296 -4.863956,-1.645612 -7.115826,-3.5881 -1.401039,-1.208551 -3.049424,-3.372856 -3.739562,-4.909986 -0.587687,-1.308941 -0.943063,-3.526711 -0.706726,-4.410406 0.168807,-0.631192 0.190806,-0.615082 1.191304,0.872428 1.469636,2.185011 2.744427,3.667562 3.272305,3.805604 0.86436,0.226034 1.267522,-0.361518 1.371804,-1.999208 0.182258,-2.86234 -0.810368,-5.601033 -2.832704,-7.815526 -1.876535,-2.054838 -4.222417,-2.480071 -6.670051,-1.209066 -0.610463,0.317001 -1.787927,0.927389 -2.616586,1.356419 -1.664828,0.861947 -3.52849,1.163481 -5.569044,0.901049 -1.373746,-0.176674 -5.269897,-1.574108 -5.110013,-1.832808 0.05721,-0.09256 1.504698,-0.233367 3.216653,-0.312908 3.164323,-0.147023 5.343144,-0.602815 6.099416,-1.27595 0.252903,-0.225103 0.409949,-0.701957 0.409949,-1.244779 0,-1.122439 -0.7769,-1.813558 -2.975109,-2.646611 -2.999336,-1.136655 -10.474394,-2.491549 -13.746076,-2.491549 -1.502807,0 -2.100606,-0.336997 -1.023743,-0.577113 4.012874,-0.894782 4.59897,-0.980839 8.778557,-1.288958 4.849805,-0.357529 10.868205,0.306214 15.057039,1.660573 2.051766,0.663389 5.402256,2.353485 7.26195,3.663162 4.850494,3.415929 9.188598,9.605994 11.367165,16.219882 0.36074,1.09515 0.73523,2.082356 0.83222,2.193789 0.32788,0.376722 0.91898,-1.225222 0.91898,-2.490517 0,-2.467402 -0.63654,-4.975664 -2.38439,-9.395613 -0.50312,-1.272294 -0.86716,-2.360868 -0.80898,-2.419052 0.30251,-0.30251 4.10152,5.50767 5.54845,8.48577 1.832,3.770642 2.79856,7.756711 2.79856,11.541193 0,3.699882 -0.78819,6.617676 -2.59087,9.591136 -1.40928,2.324564 -2.41099,3.548271 -6.005089,7.335904 -3.35321,3.533775 -5.3897,5.992806 -5.156327,6.226181 0.228461,0.228459 7.218456,-2.240136 8.828196,-3.117776 1.59306,-0.868548 1.93765,-1.119933 4.08139,-2.977468 0.72745,-0.630328 1.38252,-1.08616 1.45572,-1.01296 0.23546,0.235463 -0.62358,2.775764 -1.59629,4.720454 -1.35007,2.699124 -2.81114,4.652303 -4.55794,6.093149 -3.086158,2.545605 -6.04284,3.510493 -11.910897,3.887016 -5.787782,0.371372 -9.475222,1.152873 -10.717234,2.271377 -0.635073,0.57191 -0.515839,1.57135 0.265945,2.22918 0.628997,0.52927 0.924153,0.57947 4.253863,0.72359 1.967881,0.0852 4.509945,0.15487 5.649029,0.15487 1.30889,0 2.071064,0.0918 2.071064,0.2495 0,0.36153 -3.115513,1.74543 -5.456932,2.42395 -5.163804,1.49641 -11.33158,2.23917 -19.725639,2.37549 -4.917769,0.0799 -6.406448,0.029 -7.730463,-0.26425 z m 12.82888,-48.962527 c -0.416897,-0.2124 -1.563596,-1.401545 -2.548221,-2.642542 -1.938711,-2.443506 -2.893838,-3.374345 -3.89717,-3.798066 -0.797009,-0.336587 -0.822463,-0.630063 -0.07101,-0.818668 0.807332,-0.202627 2.004474,0.246522 4.181694,1.568905 1.034903,0.628571 2.122527,1.142855 2.416946,1.142855 0.350255,0 0.843011,-0.371196 1.425427,-1.073778 0.489565,-0.590579 1.174777,-1.223072 1.522693,-1.405539 0.828347,-0.434438 2.377192,-0.422755 3.241994,0.02445 0.891051,0.46078 1.630461,1.925933 1.630461,3.230788 0,1.433547 -0.748689,2.449417 -2.4443,3.316585 -1.704242,0.871582 -4.227962,1.081951 -5.458518,0.455008 z M 52.621304,53.206192 c -0.139516,-0.650547 -0.255281,-1.414809 -0.257253,-1.69836 -0.0019,-0.283551 -0.101159,-0.669812 -0.220412,-0.858356 -0.289448,-0.457627 -1.137842,-0.04981 -3.6353,1.747474 -2.378987,1.712024 -2.5329,1.771952 -2.334548,0.908965 0.810286,-3.52539 4.96363,-8.690218 8.348504,-10.38166 3.938245,-1.967964 8.411928,0.202242 7.663059,3.717388 -0.26311,1.235014 -1.824071,2.125205 -3.726578,2.125205 -1.548826,0 -3.233817,1.717077 -4.545484,4.632048 -0.245042,0.544559 -0.578907,0.990108 -0.741923,0.990108 -0.166397,0 -0.407656,-0.518782 -0.550065,-1.182812 z"
       id="path302" /></g></svg>
