<?xml version="1.0" encoding="UTF-8" standalone="no"?>
<!-- Created with Inkscape (http://www.inkscape.org/) -->

<svg
   width="150px"
   height="150px"
   viewBox="0 0 150 150"
   version="1.1"
   id="SVGRoot"
   sodipodi:docname="icone_terreno_preto.svg"
   inkscape:version="1.2.1 (9c6d41e410, 2022-07-14)"
   xml:space="preserve"
   xmlns:inkscape="http://www.inkscape.org/namespaces/inkscape"
   xmlns:sodipodi="http://sodipodi.sourceforge.net/DTD/sodipodi-0.dtd"
   xmlns="http://www.w3.org/2000/svg"
   xmlns:svg="http://www.w3.org/2000/svg"><sodipodi:namedview
     id="namedview1054"
     pagecolor="#505050"
     bordercolor="#ffffff"
     borderopacity="1"
     inkscape:showpageshadow="0"
     inkscape:pageopacity="0"
     inkscape:pagecheckerboard="1"
     inkscape:deskcolor="#505050"
     inkscape:document-units="px"
     showgrid="false"
     inkscape:zoom="2.8284271"
     inkscape:cx="11.490485"
     inkscape:cy="71.064232"
     inkscape:window-width="1920"
     inkscape:window-height="1009"
     inkscape:window-x="-8"
     inkscape:window-y="-8"
     inkscape:window-maximized="1"
     inkscape:current-layer="layer1"
     showguides="true"><sodipodi:guide
       position="64.700271,74.781516"
       orientation="0,-1"
       id="guide300"
       inkscape:locked="false" /><sodipodi:guide
       position="74.953319,78.228662"
       orientation="1,0"
       id="guide302"
       inkscape:locked="false" /></sodipodi:namedview><defs
     id="defs1049" /><g
     inkscape:label="Camada 1"
     inkscape:groupmode="layer"
     id="layer1"><path
       style="fill:#000000;stroke-width:0.208918"
       d="m 87.975062,115.96783 c -0.04635,-0.075 -0.297033,-1.15033 -0.557071,-2.38962 l -0.472795,-2.25325 0.388591,-1.97635 c 0.424756,-2.16028 0.402962,-2.31517 -0.769158,-5.46618 l -0.407997,-1.09682 H 85.15141 c -0.907591,0 -1.014966,0.051 -1.105536,0.52475 -0.05517,0.28862 -0.02322,0.9232 0.071,1.4102 0.09423,0.48699 0.175413,1.40576 0.180417,2.0417 l 0.0091,1.15626 -2.843457,1.90987 c -1.5639,1.05042 -2.974094,1.85973 -3.133765,1.79846 -0.234847,-0.0901 -0.290298,-0.93715 -0.290298,-4.43453 0,-3.08389 -0.07187,-4.395 -0.250701,-4.57384 -0.255082,-0.25508 -2.465228,-0.36064 -2.465228,-0.11774 0,0.31816 -1.270353,10.26441 -1.377225,10.78299 l -0.118398,0.57452 h -2.025298 -2.025298 l -0.89187,-3.60383 c -0.490528,-1.98211 -1.181619,-4.66148 -1.53576,-5.95415 -0.58664,-2.14136 -0.687349,-2.35033 -1.132714,-2.35033 -0.439358,0 -0.563983,0.23736 -1.231536,2.34551 l -0.74271,2.3455 0.341743,1.67553 c 0.296795,1.45515 0.307652,1.96415 0.08255,3.8698 -0.385629,3.26463 -0.356531,3.21989 -1.994594,3.06692 -3.120494,-0.29139 -4.547542,-1.71344 -4.822358,-4.80545 -0.141657,-1.59378 0.897917,-17.167054 1.18131,-17.696578 0.339963,-0.635229 0.237635,-1.232846 -0.423171,-2.471373 -1.193008,-2.236016 -1.222728,-2.255673 -4.489816,-2.969505 -1.608666,-0.351481 -4.479519,-0.954606 -6.379671,-1.340276 -1.900152,-0.385672 -3.874424,-0.865606 -4.387271,-1.066523 -2.945749,-1.154044 -4.828371,-3.505009 -5.89047,-7.355854 -0.383613,-1.390865 -0.444594,-2.186146 -0.451693,-5.890757 -0.0087,-4.538954 0.168178,-5.958584 1.239059,-9.944896 1.099582,-4.093155 3.100673,-8.116386 5.856742,-11.775098 1.552962,-2.061575 4.917702,-5.607952 6.510078,-6.86151 0.877007,-0.690401 0.877858,-0.690581 0.986177,-0.208918 0.05963,0.265144 0.348619,1.563229 0.642205,2.884633 0.293586,1.321404 0.618712,2.684592 0.722502,3.029306 0.10379,0.344714 0.289236,1.017402 0.412101,1.494862 l 0.223393,0.868109 2.406792,0.559689 c 1.323736,0.307829 3.907866,1.103365 5.742512,1.767861 1.834646,0.664494 3.335721,1.181469 3.335721,1.148834 0,-0.03263 -0.757065,-0.589827 -1.682366,-1.238203 -0.9253,-0.648374 -2.845822,-2.113747 -4.267822,-3.256385 -2.132324,-1.713409 -2.679756,-2.270254 -3.123488,-3.177211 -0.715096,-1.461607 -1.155217,-3.633341 -1.159663,-5.722249 -0.0035,-1.657031 0.01485,-1.720542 0.65291,-2.257438 1.247566,-1.049758 5.939648,-3.049888 8.744758,-3.727696 4.275068,-1.032998 13.741664,-1.380868 18.489214,-0.679424 6.017027,0.889007 10.754275,2.612339 15.070451,5.482379 0.934848,0.621626 1.868445,1.316666 2.074661,1.544533 0.364711,0.403009 0.349701,0.440258 -0.550674,1.366382 -1.30603,1.343372 -3.857205,3.214392 -6.728045,4.934317 -1.352863,0.810503 -2.428502,1.504886 -2.390312,1.543076 0.159912,0.159912 2.882938,-0.391649 4.432226,-0.897765 1.967246,-0.642655 5.532606,-2.137493 7.309146,-3.064483 0.69106,-0.360592 1.32045,-0.685457 1.39865,-0.721923 0.47854,-0.223166 3.73899,3.683867 6.10481,7.315466 2.5372,3.894664 4.95587,9.875956 5.95412,14.724362 0.54641,2.653908 0.61167,8.29623 0.12275,10.614625 -0.43817,2.077761 -1.43378,3.972095 -2.81463,5.355324 -2.03275,2.036256 -3.31945,2.489388 -11.07776,3.901203 -4.746239,0.863695 -6.041936,1.312914 -7.140483,2.47561 -0.308678,0.326703 -0.661227,0.858659 -0.783442,1.182129 -0.374062,0.990037 -0.26197,10.982215 0.17035,15.185155 0.389086,3.78267 0.345711,5.26333 -0.238687,8.14779 l -0.275127,1.35797 -2.65909,0.54844 c -1.462499,0.30165 -2.697014,0.48708 -2.743364,0.41209 z M 81.957034,96.779231 c 0.275054,-0.624158 0.362006,-1.682175 0.427665,-5.203883 l 0.08242,-4.420445 -0.84221,-1.638167 c -0.463215,-0.900993 -1.189703,-2.578299 -1.614418,-3.727346 -0.973895,-2.634828 -1.789639,-4.449273 -1.878516,-4.178353 -0.03769,0.114905 -0.361353,3.452364 -0.719237,7.416576 -0.357884,3.964213 -0.73745,7.419189 -0.843478,7.677724 -0.197293,0.481077 -0.531491,0.586085 -0.972618,0.305609 -0.279572,-0.177758 -1.109376,-10.473604 -1.109376,-13.764652 0,-1.57811 -0.06325,-1.986017 -0.323413,-2.085853 -0.356706,-0.136881 -0.579182,0.09721 -1.697464,1.786083 -0.950528,1.435521 -1.866264,3.942 -2.242955,6.139227 -0.843212,4.918452 -0.463233,12.059086 0.641709,12.059086 0.168543,0 0.793934,-0.211529 1.389758,-0.470064 0.895415,-0.388531 1.44569,-0.467635 3.172495,-0.456055 1.776119,0.01191 2.355275,0.109113 3.864976,0.648689 0.97669,0.349074 1.898113,0.648311 2.047609,0.664972 0.149493,0.01665 0.427167,-0.322255 0.617055,-0.753148 z M 64.681231,79.926053 c 1.955975,-0.348959 3.129729,-0.931601 3.892006,-1.931961 0.542902,-0.712468 0.585012,-0.903363 0.564966,-2.56117 -0.0388,-3.208148 -1.413597,-6.112268 -4.333176,-9.153372 -3.183577,-3.316085 -6.309125,-4.859631 -9.840344,-4.859631 -1.155479,0 -2.201118,0.141496 -3.102074,0.419772 -3.586318,1.107702 -7.022483,4.824892 -8.20594,8.877063 -0.443566,1.518775 -0.504294,4.298886 -0.117903,5.397549 0.801625,2.279333 3.060837,3.448081 7.490226,3.874889 3.070622,0.29588 11.867919,0.255193 13.652239,-0.06314 z m 40.157669,-0.01097 c 4.19268,-0.888431 5.77972,-3.511816 4.94107,-8.167604 -0.74077,-4.112381 -4.65027,-8.525388 -8.63063,-9.742167 -4.427092,-1.353343 -9.040652,0.212069 -12.895187,4.375425 -3.108073,3.35709 -4.749384,7.582665 -4.157516,10.70357 0.32152,1.695376 0.823534,2.332879 2.232874,2.835514 1.184008,0.422269 16.512779,0.418345 18.509389,-0.0047 z"
       id="path302" /></g></svg>
