<?xml version="1.0" encoding="UTF-8" standalone="no"?>
<!-- Created with Inkscape (http://www.inkscape.org/) -->

<svg
   width="150px"
   height="150px"
   viewBox="0 0 150 150"
   version="1.1"
   id="SVGRoot"
   sodipodi:docname="planeswalkerdark.svg"
   inkscape:version="1.2.1 (9c6d41e410, 2022-07-14)"
   xml:space="preserve"
   xmlns:inkscape="http://www.inkscape.org/namespaces/inkscape"
   xmlns:sodipodi="http://sodipodi.sourceforge.net/DTD/sodipodi-0.dtd"
   xmlns="http://www.w3.org/2000/svg"
   xmlns:svg="http://www.w3.org/2000/svg"><sodipodi:namedview
     id="namedview1054"
     pagecolor="#505050"
     bordercolor="#ffffff"
     borderopacity="1"
     inkscape:showpageshadow="0"
     inkscape:pageopacity="0"
     inkscape:pagecheckerboard="1"
     inkscape:deskcolor="#505050"
     inkscape:document-units="px"
     showgrid="false"
     inkscape:zoom="2.9540685"
     inkscape:cx="22.849843"
     inkscape:cy="63.979559"
     inkscape:window-width="1920"
     inkscape:window-height="1009"
     inkscape:window-x="-8"
     inkscape:window-y="-8"
     inkscape:window-maximized="1"
     inkscape:current-layer="layer1"
     showguides="true" /><defs
     id="defs1049" /><g
     inkscape:label="Camada 1"
     inkscape:groupmode="layer"
     id="layer1"><path
       style="fill:#000000;stroke-width:0.219403"
       d="m 77.248064,132.91797 c -0.0707,-0.57319 -0.23174,-2.27631 -0.35791,-3.78471 -1.07075,-12.80092 -3.52776,-21.99034 -8.1793,-30.591265 -4.92368,-9.10412 -13.00203,-16.82049 -21.58556,-20.61834 -2.00476,-0.88702 -2.15659,-0.99881 -2.22038,-1.63473 -0.17869,-1.78137 2.75527,-34.49564 3.12706,-34.86744 0.17296,-0.17295 0.58459,2.47266 1.22122,7.8489 0.67958,5.73889 1.27793,9.87264 1.88961,13.05451 0.57191,2.975 1.73637,7.32905 2.04322,7.63988 0.0978,0.0991 1.00511,-0.11055 2.0162,-0.46587 1.78667,-0.62786 1.84854,-0.6732 2.20042,-1.61262 1.36143,-3.63453 2.72432,-12.83738 4.46277,-30.13458 0.78934,-7.853648 0.99417,-9.613568 1.10563,-9.499338 0.0349,0.03574 0.32252,2.878836 0.63921,6.317986 1.70898,18.559142 2.9308,28.351052 3.9021,31.272142 l 0.28944,0.87047 1.2015,-0.0571 c 0.66082,-0.0314 1.61562,-0.11069 2.12177,-0.17617 0.90421,-0.11696 0.92664,-0.14085 1.28541,-1.36899 1.82822,-6.25846 2.90434,-15.71991 4.15979,-36.573742 0.5947,-9.878362 0.73518,-11.518867 0.98641,-11.518867 0.26929,0 0.36766,1.258089 1.32102,16.89407 0.94666,15.526369 2.22678,25.952269 3.84412,31.308379 0.38211,1.26542 0.0881,1.1337 3.32389,1.48906 1.39789,0.15351 1.40937,0.13697 2.0199,-2.90853 0.95507,-4.76415 1.72541,-11.16159 3.09639,-25.71453 0.49422,-5.246082 0.93039,-9.57015 0.96928,-9.609036 0.12105,-0.121053 0.31512,1.538891 1.22537,10.480936 1.29414,12.71335 1.9567,17.91922 2.959918,23.25677 0.58253,3.09927 1.36931,6.14882 1.66775,6.46415 0.23746,0.25089 2.977778,1.24178 3.569188,1.2906 0.47843,0.0395 0.74871,-0.61767 1.56514,-3.80548 0.87072,-3.39981 1.55816,-7.57366 2.51144,-15.24855 0.87245,-7.02409 1.27487,-9.66711 1.44585,-9.49613 0.26484,0.26484 1.27842,10.54699 2.40454,24.39252 0.94181,11.57952 0.93417,11.04395 0.1621,11.35691 -5.37791,2.17994 -10.041508,5.32935 -14.553736,9.8284 -7.80643,7.78363 -12.69141,17.387315 -15.2095,29.901325 -0.62463,3.10417 -1.3097,8.11252 -1.65848,12.12462 -0.3614,4.1572 -0.4658,4.93658 -0.66125,4.93658 -0.10066,0 -0.24086,-0.46897 -0.31154,-1.04217 z"
       id="path2067" /></g></svg>
