<?xml version="1.0" encoding="UTF-8" standalone="no"?>
<!-- Created with Inkscape (http://www.inkscape.org/) -->

<svg
   width="150px"
   height="150px"
   viewBox="0 0 150 150"
   version="1.1"
   id="SVGRoot"
   sodipodi:docname="planeswalkerligth.svg"
   inkscape:version="1.2.1 (9c6d41e410, 2022-07-14)"
   xml:space="preserve"
   xmlns:inkscape="http://www.inkscape.org/namespaces/inkscape"
   xmlns:sodipodi="http://sodipodi.sourceforge.net/DTD/sodipodi-0.dtd"
   xmlns="http://www.w3.org/2000/svg"
   xmlns:svg="http://www.w3.org/2000/svg"><sodipodi:namedview
     id="namedview1054"
     pagecolor="#505050"
     bordercolor="#ffffff"
     borderopacity="1"
     inkscape:showpageshadow="0"
     inkscape:pageopacity="0"
     inkscape:pagecheckerboard="1"
     inkscape:deskcolor="#505050"
     inkscape:document-units="px"
     showgrid="false"
     inkscape:zoom="2.9540685"
     inkscape:cx="35.713458"
     inkscape:cy="83.613498"
     inkscape:window-width="1920"
     inkscape:window-height="1009"
     inkscape:window-x="-8"
     inkscape:window-y="-8"
     inkscape:window-maximized="1"
     inkscape:current-layer="layer1"
     showguides="true" /><defs
     id="defs1049" /><g
     inkscape:label="Camada 1"
     inkscape:groupmode="layer"
     id="layer1"><path
       style="fill:#ffffff;stroke-width:0.219403"
       d="m 75.690139,133.89429 c -0.0707,-0.57319 -0.23174,-2.27631 -0.35791,-3.78471 -1.07075,-12.80092 -3.52776,-21.99034 -8.1793,-30.591272 -4.92368,-9.10412 -13.00203,-16.82049 -21.58556,-20.61834 -2.00476,-0.88702 -2.15659,-0.99881 -2.22038,-1.63473 -0.17869,-1.78137 2.75527,-34.495638 3.12706,-34.867432 0.17296,-0.172958 0.58459,2.472657 1.22122,7.848899 0.67958,5.738889 1.27793,9.872636 1.88961,13.054509 0.57191,2.974999 1.73637,7.329044 2.04322,7.63988 0.0978,0.09909 1.00511,-0.110551 2.0162,-0.465868 1.78667,-0.627863 1.84854,-0.673205 2.20042,-1.612623 1.36143,-3.634535 2.72432,-12.837378 4.46277,-30.134582 0.78934,-7.853647 0.99417,-9.613567 1.10563,-9.499337 0.0349,0.03574 0.32252,2.878836 0.63921,6.317986 1.70898,18.559145 2.9308,28.351051 3.9021,31.272146 l 0.28944,0.870468 1.2015,-0.05712 c 0.66082,-0.03142 1.61562,-0.110694 2.12177,-0.176168 0.90421,-0.116966 0.92664,-0.140855 1.28541,-1.368999 1.82822,-6.258456 2.90434,-15.719906 4.15979,-36.573737 0.5947,-9.878362 0.73518,-11.518867 0.98641,-11.518867 0.26929,0 0.36766,1.258089 1.32102,16.89407 0.94666,15.526366 2.22678,25.952272 3.84412,31.308379 0.38211,1.265418 0.0881,1.133699 3.32389,1.489056 1.39789,0.153514 1.40937,0.136978 2.0199,-2.908527 0.95507,-4.764145 1.72541,-11.161592 3.09639,-25.714526 0.49422,-5.246085 0.93039,-9.570153 0.96928,-9.609039 0.12105,-0.121053 0.31512,1.538891 1.22537,10.480938 1.29414,12.713352 1.9567,17.919218 2.95992,23.256772 0.58253,3.099268 1.36931,6.148818 1.66775,6.464141 0.23746,0.250896 2.97778,1.241788 3.56919,1.290606 0.478421,0.03949 0.748701,-0.617674 1.565131,-3.805484 0.87072,-3.399811 1.55816,-7.573653 2.51144,-15.248544 0.87245,-7.024089 1.27487,-9.667118 1.44585,-9.496137 0.26484,0.26484 1.27842,10.546994 2.40454,24.392521 0.94181,11.579519 0.93417,11.043949 0.1621,11.356909 -5.37791,2.17994 -10.041501,5.32935 -14.553731,9.8284 -7.80643,7.78363 -12.69141,17.387322 -15.2095,29.901332 -0.62463,3.10417 -1.3097,8.11252 -1.65848,12.12462 -0.3614,4.1572 -0.4658,4.93658 -0.66125,4.93658 -0.10066,0 -0.24086,-0.46897 -0.31154,-1.04217 z"
       id="path2067" /></g></svg>
