<?xml version="1.0" encoding="UTF-8" standalone="no"?>
<!-- Created with Inkscape (http://www.inkscape.org/) -->

<svg
   width="456"
   height="456"
   viewBox="0 0 45.6 45.6"
   version="1.1"
   id="SVGRoot"
   sodipodi:docname="appiconfg.svg"
   xml:space="preserve"
   inkscape:version="1.2.1 (9c6d41e410, 2022-07-14)"
   xmlns:inkscape="http://www.inkscape.org/namespaces/inkscape"
   xmlns:sodipodi="http://sodipodi.sourceforge.net/DTD/sodipodi-0.dtd"
   xmlns="http://www.w3.org/2000/svg"
   xmlns:svg="http://www.w3.org/2000/svg"><sodipodi:namedview
     id="namedview187"
     pagecolor="#505050"
     bordercolor="#ffffff"
     borderopacity="1"
     inkscape:showpageshadow="0"
     inkscape:pageopacity="0"
     inkscape:pagecheckerboard="1"
     inkscape:deskcolor="#505050"
     inkscape:document-units="px"
     showgrid="false"
     inkscape:zoom="1.0444209"
     inkscape:cx="112.50253"
     inkscape:cy="194.36608"
     inkscape:window-width="1920"
     inkscape:window-height="1009"
     inkscape:window-x="-8"
     inkscape:window-y="-8"
     inkscape:window-maximized="1"
     inkscape:current-layer="layer1"
     showguides="true" /><defs
     id="defs182"><rect
       x="65.333626"
       y="188.89203"
       width="43.668587"
       height="58.901817"
       id="rect540" /></defs><g
     inkscape:label="Camada 1"
     inkscape:groupmode="layer"
     id="layer1"
     transform="matrix(0.17424692,0,0,0.17456464,8.7470005,8.5688752)"><g
       id="g621"
       transform="translate(4.9454046,3.839425)"><g
         id="g580"
         inkscape:label="Azul"><ellipse
           style="fill:#66c0f4;fill-opacity:1;stroke:#000000;stroke-width:3.77953;stroke-linecap:round;stroke-linejoin:round;stroke-dasharray:none;stroke-opacity:1"
           id="path904-9"
           cx="122.28419"
           cy="63.174026"
           rx="22.565092"
           ry="24.630571" /><path
           style="fill:#000000;stroke-width:0.0778558"
           d="m 132.1144,55.685378 c 0.59995,0.772747 0.9257,1.293557 1.22038,1.951151 0.29395,0.655949 0.64605,1.770957 0.61423,1.94507 -0.007,0.03575 0.0136,0.15538 0.0448,0.265804 0.17223,0.609527 0.0621,2.438852 -0.20503,3.404866 -0.39745,1.437425 -0.95488,2.509161 -2.03219,3.907115 -0.39504,0.512564 -2.51884,2.463006 -2.89634,2.659793 -0.13823,0.07214 -0.48309,0.268771 -0.76626,0.437046 -1.41803,0.84266 -3.57806,1.648231 -5.77599,2.154126 -0.40349,0.09287 -0.80138,0.184946 -0.88418,0.204618 -0.29783,0.07075 -2.83074,0.491373 -3.07509,0.510663 -0.13739,0.01089 -0.5364,0.04893 -0.88661,0.08462 -0.72285,0.07367 -1.25655,0.120494 -1.42714,0.125218 -0.064,0.0018 -0.299,0.01451 -0.52225,0.0283 -1.82216,0.112571 -4.09598,0.06508 -6.11787,-0.127769 -0.82868,-0.07903 -0.94972,-0.112998 -0.72503,-0.203426 0.0748,-0.03013 0.44825,-0.260209 0.8299,-0.511354 0.38166,-0.251129 0.75714,-0.491817 0.83442,-0.534832 0.0773,-0.04301 0.50388,-0.353579 0.94797,-0.690161 0.70966,-0.537881 0.87968,-0.69989 1.40329,-1.339034 0.32798,-0.399629 0.68802,-0.888764 0.80013,-1.086935 0.11212,-0.198162 0.28518,-0.50355 0.38461,-0.678617 0.20254,-0.356661 0.5198,-1.14365 0.71963,-1.785114 0.12525,-0.402051 0.38212,-1.452862 0.38444,-1.572691 6.4e-4,-0.03042 0.043,-0.240029 0.0942,-0.465741 0.0512,-0.225709 0.0928,-0.436238 0.0922,-0.46785 -4.9e-4,-0.03155 0.0714,-0.362683 0.15977,-0.735729 0.0884,-0.373049 0.28484,-1.335681 0.43656,-2.13918 0.15172,-0.803499 0.33351,-1.654464 0.40397,-1.89104 0.0704,-0.236579 0.12756,-0.456123 0.12691,-0.487879 -0.002,-0.08541 0.17602,-0.540508 0.50058,-1.281143 0.70738,-1.614249 1.94678,-2.983263 3.64171,-4.022495 0.9758,-0.598293 2.15102,-1.000983 3.36318,-1.152388 0.52466,-0.06553 1.90701,-0.05907 2.48465,0.01162 0.58001,0.07097 1.80436,0.396006 2.07905,0.551925 0.0951,0.054 0.27799,0.143367 0.40634,0.19857 0.3688,0.158635 0.90896,0.476554 1.3259,0.780388 0.41466,0.302166 1.70243,1.549924 2.01459,1.951996 z m -10.53686,0.114745 c -0.33467,-0.0898 -0.64065,-0.06742 -1.08806,0.07958 -0.26781,0.08798 -0.45013,0.22565 -1.00063,0.755473 -0.62605,0.602432 -0.70126,0.70241 -1.07394,1.426314 -0.66753,1.296449 -0.9779,2.460258 -0.86581,3.246378 l 0.0391,0.274388 0.18788,-0.281547 c 0.38946,-0.583615 1.57435,-1.339589 3.53113,-2.252934 0.93808,-0.43785 1.21413,-0.650995 1.40511,-1.084945 0.19602,-0.445388 0.18391,-0.672042 -0.0681,-1.27429 -0.10249,-0.244926 -0.78403,-0.812591 -1.0667,-0.888412 z"
           id="path304" /></g><g
         id="g588"
         inkscape:label="Verde"><ellipse
           style="fill:#27b56b;fill-opacity:1;stroke:#000000;stroke-width:3.77953;stroke-linecap:round;stroke-linejoin:round;stroke-dasharray:none;stroke-opacity:1"
           id="path904-5"
           cx="27.465441"
           cy="63.37085"
           rx="22.565092"
           ry="24.630571" /><path
           style="fill:#000000;stroke-width:0.0952286"
           d="m 14.928991,56.523375 c 0.285241,-0.146711 1.002292,-0.170778 1.661378,-0.05576 0.28462,0.04967 0.538919,0.04961 0.565114,-1.28e-4 0.06653,-0.12632 -0.261216,-1.017588 -0.583035,-1.585509 -0.148024,-0.261221 -0.242916,-0.524736 -0.210871,-0.585583 0.05511,-0.104641 0.206552,-0.09678 1.414331,0.07337 0.475619,0.06701 0.517477,0.0522 0.8272,-0.292739 0.534834,-0.595634 1.123997,-1.517978 1.310364,-2.051394 0.35154,-1.006162 0.650278,-1.654955 0.837593,-1.819065 0.18571,-0.162703 0.193838,-0.144726 0.255266,0.564946 0.0349,0.403145 0.05155,1.174223 0.03701,1.713505 -0.02498,0.926048 -0.04657,1.017749 -0.388704,1.650868 -0.289397,0.535562 -0.369999,0.783379 -0.400733,1.232424 -0.06627,0.968029 -0.03118,1.017657 1.164457,1.647334 0.658516,0.346803 1.240828,0.593404 1.599424,0.677344 1.649609,0.386122 2.969444,-0.137376 4.488424,-1.780281 0.343781,-0.371828 0.620036,-0.687511 0.613895,-0.701513 -0.0061,-0.01397 -0.144065,-0.191608 -0.306506,-0.394677 -0.62101,-0.776341 -0.793746,-1.706 -0.516217,-2.778247 0.371235,-1.434274 0.955674,-2.045519 2.280321,-2.384893 1.643135,-0.420975 2.847329,-0.12269 3.611346,0.894551 0.191454,0.254913 0.415744,0.691186 0.498421,0.969498 l 0.150321,0.50602 0.591752,-0.110224 c 1.088558,-0.202763 2.189602,0.217173 2.824489,1.07726 0.35977,0.48738 0.593587,1.464262 0.478556,1.999379 -0.08902,0.414103 -0.07873,0.440863 0.267062,0.69489 0.430743,0.316428 0.636943,0.597443 0.754664,1.028459 0.08598,0.314803 0.09389,0.320662 0.425922,0.315256 0.255187,-0.0042 0.545346,0.103525 1.180899,0.438235 0.752295,0.396192 0.88076,0.496125 1.19881,0.932744 0.45269,0.621413 0.696372,1.557796 0.583559,2.242405 -0.185883,1.128024 -0.973654,2.168089 -1.971781,2.603268 l -0.404268,0.176256 0.460766,0.533717 c 1.591703,1.843682 1.819061,3.787485 0.691746,5.914018 -0.703075,1.326212 -1.407478,1.887635 -3.049232,2.430173 l -0.878994,0.290477 -0.19551,0.650429 c -0.263036,0.875077 -0.693147,1.679557 -1.145901,2.143301 -0.965723,0.989167 -2.502571,1.433115 -4.162196,1.20234 -0.601039,-0.08358 -0.621108,-0.07768 -1.032816,0.303288 -0.505211,0.467494 -1.026395,0.658983 -1.508598,0.554276 -0.473097,-0.102731 -0.661415,-0.213089 -0.838519,-0.491375 -0.225327,-0.354071 -0.300036,-0.360047 -0.819692,-0.06558 -1.840618,1.043005 -3.96333,0.747235 -5.367198,-0.74785 l -0.549183,-0.584865 -0.441339,0.16178 c -0.591073,0.216661 -1.056318,0.182908 -1.627878,-0.118101 -0.580873,-0.305913 -0.891885,-0.718943 -1.071709,-1.423261 -0.164465,-0.644158 -0.132879,-0.900573 0.18471,-1.499403 0.314109,-0.592358 0.785971,-0.918802 1.470832,-1.017686 l 0.48634,-0.07022 0.422708,-0.746032 c 0.23249,-0.410317 0.503832,-0.921254 0.602943,-1.135435 0.324761,-0.701452 0.950136,-3.749028 0.893085,-4.352197 -0.04942,-0.522458 -0.706126,-1.221074 -2.134728,-2.27095 -1.428041,-1.049464 -2.548784,-1.522489 -3.20777,-1.353884 -0.322901,0.08262 -0.809826,0.426209 -1.469578,1.036986 -0.399677,0.370011 -0.667397,0.728422 -1.15599,1.54759 -0.478665,0.802539 -0.720034,1.127707 -0.976412,1.315447 -0.405971,0.297286 -0.722879,0.260061 -0.551783,-0.06482 0.190363,-0.361465 0.595932,-1.581926 0.536148,-1.613411 -0.03106,-0.01636 -0.267681,0.124295 -0.525841,0.312557 -0.325916,0.237674 -0.499214,0.308245 -0.567009,0.230896 -0.244427,-0.278882 0.229168,-1.3987 0.926827,-2.191488 0.213573,-0.242694 0.47415,-0.600973 0.57906,-0.796174 0.171759,-0.3197 0.170459,-0.372213 -0.01348,-0.529123 -0.744176,-0.634805 -0.766652,-0.665481 -0.606217,-0.827371 0.368051,-0.371387 0.68682,-0.572542 1.505869,-0.950269 0.479399,-0.221089 0.943934,-0.481258 1.0323,-0.578155 0.198159,-0.21729 0.06476,-0.564419 -0.53951,-1.403955 -0.403189,-0.560162 -0.409646,-0.583163 -0.194753,-0.69369 z m 11.734383,3.58468 c 0.53078,0.104669 1.524267,-0.186345 2.136378,-0.625788 0.432965,-0.310833 0.583475,-0.483038 0.828008,-0.947361 0.273009,-0.518394 0.635565,-1.908719 0.485615,-1.862223 -0.03255,0.01009 -0.200241,0.204952 -0.372624,0.433019 -0.675288,0.893403 -1.810533,1.665748 -3.333792,2.268091 l -0.700343,0.276936 0.300205,0.193532 c 0.165108,0.10645 0.460563,0.225148 0.656552,0.263796 z m -2.787756,7.980019 -0.256864,1.160085 0.680885,-0.12806 0.680884,-0.128059 -0.06048,-0.534786 c -0.193984,-1.715405 -0.48258,-3.178706 -0.643644,-3.263529 -0.03393,-0.01787 -0.08019,0.36503 -0.102806,0.850886 -0.02261,0.485856 -0.156703,1.405415 -0.297979,2.043463 z m 3.740543,-0.234692 c 0.157003,0.581649 0.648383,1.267841 1.066689,1.489588 0.298703,0.158408 0.314076,0.152624 0.985087,-0.368084 0.374897,-0.290923 0.725753,-0.566255 0.77968,-0.611849 0.07635,-0.06456 -0.250119,-0.266258 -1.475481,-0.911588 l -1.573529,-0.828689 0.04325,0.37257 c 0.02379,0.204913 0.102224,0.591036 0.174299,0.858052 z m 3.657911,-6.60586 c 0.425837,-0.07014 0.822638,-0.11957 0.881781,-0.109841 0.07227,0.01188 0.141538,-0.169199 0.211218,-0.552146 0.121691,-0.668762 0.07862,-1.244353 -0.104051,-1.390564 -0.106194,-0.08502 -0.165233,-0.03787 -0.32431,0.258971 -0.106928,0.199603 -0.425427,0.62872 -0.707706,0.953617 -0.856229,0.985511 -0.856098,0.988064 0.04307,0.839963 z m 0.782871,3.822962 c 0.02088,-0.0065 0.189447,-0.234418 0.374571,-0.506532 l 0.336589,-0.494756 -0.257687,-0.135709 c -0.195253,-0.10283 -0.471773,-0.08548 -1.141306,0.07161 l -0.88362,0.20732 0.766733,0.434921 c 0.421702,0.239209 0.783825,0.429626 0.804723,0.423138 z"
           id="path302-3" /></g><g
         id="g592"
         inkscape:label="Vermelho"><ellipse
           style="fill:#fa5454;fill-opacity:1;stroke:#000000;stroke-width:3.77953;stroke-linecap:round;stroke-linejoin:round;stroke-dasharray:none;stroke-opacity:1"
           id="path904-1"
           cx="44.600857"
           cy="119.24417"
           rx="22.565092"
           ry="24.630571" /><path
           style="fill:#000000;stroke-width:0.102774"
           d="m 28.05083,121.94809 c -0.939524,-2.1289 -0.718083,-4.75791 0.600827,-7.13311 0.692918,-1.24786 1.279912,-1.90039 2.535866,-2.81899 0.948678,-0.69365 1.183521,-0.8235 1.951561,-1.0776 2.06694,-0.6838 4.105003,-0.59428 5.94895,0.26131 1.963121,0.91088 3.50396,2.63711 4.064346,4.55337 0.48161,1.64687 2.151382,2.98715 5.080671,4.07806 1.786003,0.66514 1.784517,0.66329 0.936004,1.16964 -1.061585,0.63352 -1.931957,0.97355 -2.997373,1.17099 -1.30546,0.24193 -2.151967,0.15662 -3.574938,-0.36025 -1.575149,-0.57215 -2.292378,-0.61941 -2.877447,-0.18963 -0.778371,0.57178 -0.258458,2.47626 0.849475,3.11175 0.549498,0.31518 1.629239,0.53102 2.409913,0.48174 1.067798,-0.0674 1.657042,-0.31877 2.917146,-1.24442 1.792779,-1.31695 2.733362,-1.66434 4.1313,-1.52584 1.184227,0.11733 1.061116,0.31354 -0.525173,0.837 -0.411023,0.13563 -0.90374,0.36327 -1.094917,0.50587 -0.372734,0.27802 -1.00035,1.21366 -0.938977,1.39984 0.135189,0.4101 2.142206,0.1595 3.611929,-0.45098 1.123697,-0.46675 1.212023,-0.53814 1.070242,-0.86508 -0.523459,-1.20711 -0.681474,-2.14721 -0.579541,-3.44795 0.06343,-0.80928 0.400541,-1.95425 0.764789,-2.59751 0.310169,-0.54777 1.002023,-1.24945 1.375864,-1.39541 0.267021,-0.10426 0.267036,-0.0923 9.45e-4,0.64782 -0.390855,1.08714 -0.583957,1.92295 -0.495656,2.14545 0.144555,0.36435 0.457045,0.35427 1.063179,-0.0342 1.059402,-0.67901 1.769928,-1.74131 2.027666,-3.03154 0.239143,-1.19721 -0.219797,-2.13711 -1.304936,-2.67242 -0.270645,-0.13351 -0.792289,-0.3913 -1.15921,-0.57286 -0.737178,-0.36477 -1.327856,-0.9454 -1.76506,-1.73506 -0.294347,-0.53161 -0.812192,-2.27217 -0.679193,-2.28283 0.04758,-0.004 0.47333,0.47141 0.946107,1.05606 0.87386,1.08065 1.60094,1.73265 2.035366,1.82522 0.145312,0.0309 0.354677,-0.0374 0.546608,-0.17836 0.39687,-0.29154 0.439448,-0.74574 0.163051,-1.73935 -0.377126,-1.35573 -1.839585,-4.35065 -2.689347,-5.50745 -0.390328,-0.53136 -0.42644,-0.83026 -0.06185,-0.51187 1.358657,1.18646 1.541308,1.37134 2.735828,2.76913 1.38607,1.62192 2.714559,3.92229 3.323663,5.75515 0.298346,0.89776 0.570993,2.5214 0.590947,3.51911 0.05203,2.60226 -1.009895,5.74388 -2.782577,8.23202 -0.293527,0.41199 -0.545322,0.80082 -0.559532,0.86406 -0.04803,0.21377 0.671906,0.007 1.119291,-0.32195 0.872413,-0.64086 1.593963,-1.51741 2.702782,-3.28341 0.319182,-0.50835 0.609515,-0.9198 0.64521,-0.91435 0.185534,0.0284 -0.882098,2.88073 -1.559273,4.16584 -0.857387,1.62712 -2.015732,3.00419 -3.35385,3.98715 -1.308193,0.96097 -2.544584,1.44013 -4.064151,1.57505 -1.18795,0.10547 -1.880804,0.0691 -4.153538,-0.2179 -2.120403,-0.26779 -3.518802,-0.34916 -3.540706,-0.20603 -0.02145,0.14013 2.666931,1.97046 3.395346,2.31168 0.720868,0.33768 0.899254,0.39423 2.112842,0.66974 0.411813,0.0935 0.743124,0.20673 0.736258,0.25162 -0.0221,0.14441 -1.143419,0.50047 -2.083662,0.66164 -1.305009,0.22369 -2.375094,0.21439 -3.338252,-0.029 -1.701648,-0.43002 -2.810759,-1.22483 -4.468007,-3.20186 -1.634584,-1.94998 -2.86866,-3.05079 -3.586726,-3.19943 -0.367172,-0.076 -0.689577,0.22574 -0.71912,0.67302 -0.02376,0.35987 0.03514,0.47727 0.849018,1.69202 0.480981,0.71794 1.116657,1.63482 1.412514,2.03757 0.339961,0.4628 0.505444,0.75615 0.449706,0.79709 -0.127827,0.0939 -1.426345,-0.64823 -2.274395,-1.29988 -1.870314,-1.43714 -3.734905,-3.42502 -5.963318,-6.35757 -1.305512,-1.71809 -1.674198,-2.25766 -1.914422,-2.80195 z m 20.644179,-8.18114 c -0.03317,-0.20258 0.08944,-0.91688 0.272485,-1.58735 0.360429,-1.32015 0.441484,-1.89963 0.330699,-2.36444 -0.088,-0.36923 0.0092,-0.45445 0.271022,-0.23774 0.281338,0.23282 0.433459,0.77277 0.531389,1.88605 0.04655,0.52918 0.147198,1.04732 0.223668,1.15142 0.09097,0.12385 0.350202,0.20166 0.749901,0.2251 0.335971,0.0197 0.737571,0.0977 0.892458,0.17333 0.368758,0.18005 0.766918,0.73072 0.833348,1.1527 0.06851,0.43474 -0.257482,1.07672 -0.718858,1.41564 -0.506862,0.37233 -1.060514,0.37146 -1.807533,-0.003 -0.750817,-0.37621 -1.480696,-1.2139 -1.578634,-1.81184 z m -2.991003,-8.66545 c 0.193782,-0.2183 0.433942,-0.45774 0.533687,-0.53208 0.09974,-0.0743 0.210555,-0.20974 0.246255,-0.30088 0.08662,-0.2212 -0.277885,-0.41528 -1.562077,-0.83149 -1.223238,-0.39649 -1.284402,-0.43534 -0.927752,-0.58936 1.456958,-0.62915 4.361892,-0.5021 5.839115,0.2554 1.718718,0.88133 2.113366,3.02679 0.675956,3.67502 -0.505021,0.22775 -1.225199,-0.093 -1.719342,-0.76565 -0.402281,-0.54763 -1.447056,-0.69743 -2.818403,-0.4041 -0.256189,0.0548 -0.500446,0.0525 -0.542787,-0.005 -0.04322,-0.0588 0.07755,-0.27888 0.275348,-0.5017 z"
           id="path302-0" /></g><g
         id="g584"
         inkscape:label="Trevas"><ellipse
           style="fill:#848484;fill-opacity:1;stroke:#000000;stroke-width:3.77953;stroke-linecap:round;stroke-linejoin:round;stroke-dasharray:none;stroke-opacity:1"
           id="path904-6"
           cx="105.37389"
           cy="119.74012"
           rx="22.565092"
           ry="24.630571" /><path
           style="fill:#000000;stroke-width:0.0789181"
           d="m 118.63616,128.83003 c -0.0313,-0.0112 -0.35904,-0.26926 -0.72815,-0.57349 l -0.67113,-0.55314 -0.35167,-0.6747 c -0.38441,-0.73748 -0.42738,-0.77804 -1.51663,-1.43101 l -0.37915,-0.22729 -0.29653,0.23718 c -0.26773,0.21413 -0.28736,0.25454 -0.20232,0.41564 0.0519,0.0981 0.2108,0.27796 0.35367,0.39926 0.1427,0.12142 0.38345,0.37328 0.53499,0.5597 l 0.27515,0.33921 -0.38817,1.2343 c -0.2135,0.67887 -0.43855,1.25035 -0.5001,1.26994 -0.0905,0.0289 -0.30676,-0.20796 -1.13195,-1.23967 -0.72763,-0.90973 -1.05823,-1.27952 -1.15313,-1.29011 -0.1355,-0.0151 -0.81233,0.47528 -0.75504,0.54692 0.0751,0.0939 2.04711,3.32768 2.13794,3.50587 l 0.10065,0.19741 -0.59745,0.47786 -0.59746,0.47786 -1.11341,-0.85267 c -0.61237,-0.46898 -1.44843,-1.09632 -1.8579,-1.3941 -0.6783,-0.49326 -0.75732,-0.53115 -0.88869,-0.42607 -0.12962,0.10367 -0.11035,0.20312 0.19011,0.98249 l 0.33431,0.86715 0.49615,0.41364 c 0.4309,0.35923 0.55419,0.50682 0.93743,1.12209 0.65652,1.05404 0.65455,1.03397 0.13523,1.37534 -0.98928,0.65031 -1.74578,0.56752 -2.5564,-0.27976 -0.41783,-0.43674 -3.78562,-5.27606 -3.82696,-5.49914 -0.0496,-0.26759 -0.22076,-0.41977 -0.70794,-0.62919 -0.87949,-0.37815 -0.89288,-0.37694 -2.02509,0.18334 -0.55747,0.27587 -1.54667,0.77532 -2.198215,1.10988 -0.65152,0.33457 -1.34717,0.65881 -1.54586,0.72055 -1.14127,0.35459 -2.25134,0.10527 -3.47324,-0.78011 -0.44134,-0.31979 -0.64697,-0.54 -1.52316,-1.63117 -1.07329,-1.33709 -1.35631,-1.79741 -1.98094,-3.22605 -0.64139,-1.4669 -1.00035,-3.12588 -1.05058,-4.85547 -0.0283,-0.97457 0.12753,-2.81463 0.3015,-3.56014 0.0958,-0.41059 0.096,-0.41085 0.24163,-0.2943 0.0801,0.0642 0.47167,0.37889 0.87007,0.69942 0.39839,0.32055 0.81593,0.64597 0.92788,0.72316 0.11195,0.0772 0.32538,0.23189 0.47428,0.34375 l 0.27074,0.20337 0.84204,-0.40276 c 0.46313,-0.22153 1.41314,-0.59657 2.11114,-0.83342 0.69799,-0.23685 1.26278,-0.43852 1.25508,-0.44815 -0.008,-0.01 -0.3625,0.005 -0.78844,0.0317 -0.42594,0.0271 -1.33823,0.0479 -2.02732,0.0464 -1.03329,-0.002 -1.32617,-0.0374 -1.67107,-0.20028 -0.5558,-0.26245 -1.19804,-0.79925 -1.69223,-1.41442 -0.39253,-0.48757 -0.40127,-0.5113 -0.34003,-0.81998 0.12035,-0.60404 1.03255,-2.30114 1.70013,-3.16296 1.01739,-1.31341 3.72792,-3.64963 5.29392,-4.56288 1.98475,-1.15744 3.788835,-1.76679 5.739265,-1.93854 0.42244,-0.0372 0.86184,-0.0524 0.97644,-0.0339 0.20267,0.0328 0.20703,0.0474 0.15994,0.533 -0.0683,0.70444 -0.37943,1.85832 -0.8205,3.04306 -0.20786,0.55829 -0.36133,1.01692 -0.34105,1.01918 0.0849,0.009 0.75805,-0.79575 1.09566,-1.31061 0.4287,-0.65374 1.12776,-1.93594 1.4331,-2.62856 0.11879,-0.26943 0.2278,-0.51377 0.24227,-0.54297 0.0885,-0.17875 1.97218,0.20452 3.52694,0.71761 1.6674,0.55027 3.79216,1.74405 5.23059,2.93877 0.78738,0.65396 2.13791,2.30302 2.54072,3.10228 0.36098,0.71631 0.51425,1.51004 0.43326,2.24389 -0.1192,1.08031 -0.39185,1.51757 -2.34741,3.7646 -1.19632,1.37464 -1.47256,1.81287 -1.52229,2.41506 -0.014,0.16921 0.008,0.40931 0.0478,0.53357 0.12325,0.38032 2.5139,3.30154 3.63318,4.43933 1.00728,1.02406 1.34384,1.47108 1.85199,2.4599 l 0.23925,0.46551 -0.65501,0.78918 c -0.36026,0.43406 -0.68069,0.78004 -0.71206,0.76885 z m -6.30276,-4.24061 c -0.0661,-0.24902 -0.29011,-0.58164 -1.10168,-1.63603 l -1.0187,-1.32343 -0.63496,-0.28454 c -0.34924,-0.15649 -0.95931,-0.47988 -1.35571,-0.71863 -0.90897,-0.54747 -1.57771,-0.89025 -1.54001,-0.78936 0.016,0.0428 0.70797,1.10368 1.53774,2.35754 0.82977,1.25387 1.53299,2.36263 1.56271,2.46391 0.0553,0.18845 -0.0185,0.2983 -0.21482,0.31964 -0.12437,0.0136 -2.79846,-2.82791 -3.57497,-3.79875 -0.37235,-0.46553 -0.48725,-0.57093 -0.58756,-0.53901 -0.13752,0.0438 -0.14793,0.16531 -0.0793,0.9274 0.0583,0.64775 0.37956,1.60321 0.78686,2.34025 0.91175,1.64988 2.70866,3.66668 3.0346,3.40598 0.0497,-0.0398 0.18431,-0.24973 0.29906,-0.46659 0.17247,-0.32588 0.31614,-0.47906 0.82827,-0.88306 0.52644,-0.41595 0.72053,-0.52355 1.29321,-0.72057 0.37047,-0.12747 0.7129,-0.2566 0.76093,-0.28696 0.0479,-0.0306 0.05,-0.19585 0.004,-0.36777 z m -9.07273,-0.89545 c 0.49467,-0.56444 0.70345,-1.01326 0.69229,-1.48822 -0.008,-0.33827 -0.0406,-0.40452 -0.43764,-0.88883 -0.76835,-0.93727 -1.85917,-1.46955 -3.43797,-1.6778 -1.721555,-0.22708 -3.007775,0.055 -4.049465,0.88822 -0.34086,0.27263 -0.61597,0.56105 -0.81605,0.85576 -0.79659,1.17294 -0.93319,3.08024 -0.3262,4.55484 0.22749,0.55269 0.86553,1.38714 1.23878,1.62005 0.77427,0.48325 1.71649,0.29497 3.12384,-0.62423 0.975625,-0.63721 3.561195,-2.7249 4.012485,-3.23977 z m 11.84382,-9.47817 c 1.0272,-1.25132 0.87639,-2.39967 -0.46952,-3.57523 -1.18883,-1.03835 -3.38335,-1.41774 -4.84463,-0.83752 -1.62528,0.64532 -2.61691,2.19565 -2.77164,4.33329 -0.12478,1.72366 0.38805,3.35745 1.29901,4.13845 0.49486,0.42426 0.79337,0.49388 1.32772,0.30963 0.4489,-0.1548 4.9699,-3.77272 5.45893,-4.36878 z"
           id="path302" /></g><g
         id="g576"
         inkscape:label="Luz"><ellipse
           style="fill:#ffffd4;fill-opacity:1;stroke:#000000;stroke-width:3.77953;stroke-linecap:round;stroke-linejoin:round;stroke-dasharray:none;stroke-opacity:1"
           id="path904"
           cx="75.286331"
           cy="29.521332"
           rx="22.565092"
           ry="24.630571" /><path
           style="fill:#000000;stroke-width:0.0839749"
           d="m 72.319889,47.306913 c 0,-0.161308 0.3784,-0.916927 0.882947,-1.763149 0.330458,-0.554243 0.682661,-1.226409 0.78267,-1.493708 0.214033,-0.572048 0.244491,-1.461244 0.06189,-1.806467 -0.06597,-0.124718 -0.465791,-0.566861 -0.888486,-0.982535 -0.907789,-0.89271 -1.216537,-1.310961 -1.345343,-1.82251 -0.121897,-0.484089 -0.0045,-0.959349 0.382726,-1.55075 l 0.284326,-0.434135 -0.162764,-0.20692 c -0.235915,-0.299915 -0.792735,-0.493882 -1.42553,-0.496576 -0.68658,-0.003 -1.179744,0.129808 -1.507734,0.405791 l -0.255742,0.215198 v 1.246688 c 0,0.685682 -0.03727,1.344752 -0.08285,1.464597 -0.105813,0.278307 -0.660263,0.524383 -1.554664,0.689986 -0.957237,0.17724 -2.161499,0.09723 -4.543941,-0.301895 -1.103356,-0.184845 -2.10057,-0.348197 -2.216035,-0.363003 l -0.209938,-0.02694 0.251924,-0.134741 c 0.13856,-0.0741 0.762072,-0.314513 1.385584,-0.534241 1.966908,-0.693147 2.655735,-1.14656 3.029793,-1.994345 0.217381,-0.492692 0.260393,-1.437771 0.09233,-2.0287 -0.08101,-0.284842 -0.07128,-0.366717 0.07089,-0.596767 0.220611,-0.356953 0.865197,-0.951481 1.459206,-1.345881 0.449331,-0.298335 0.481056,-0.340393 0.436059,-0.578019 -0.02668,-0.140948 -0.17162,-0.500306 -0.322072,-0.798572 -0.375757,-0.744943 -0.812542,-1.053219 -1.492256,-1.053219 -0.602366,0 -0.750546,0.09972 -1.552463,1.044781 -0.718689,0.846982 -0.918919,0.963811 -1.553231,0.906293 -1.209135,-0.109641 -1.944943,-0.869253 -3.857847,-3.982654 -0.374371,-0.609323 -0.868814,-1.313712 -1.098764,-1.565311 -0.229948,-0.251601 -0.418086,-0.47846 -0.418086,-0.504134 0,-0.132031 0.982861,0.269099 1.721486,0.702583 1.327204,0.77891 1.762324,0.952959 2.393283,0.957314 0.704666,0.0049 0.863999,-0.105042 1.501445,-1.035744 0.935664,-1.366105 1.465167,-1.643307 2.428884,-1.271555 0.263097,0.101491 0.662761,0.24713 0.888147,0.323639 l 0.409788,0.139113 0.326172,-0.367545 c 0.753504,-0.849094 0.731585,-2.170804 -0.05136,-3.097151 -0.481039,-0.569141 -1.16056,-0.732799 -2.023865,-0.487432 -0.22777,0.06473 -0.550844,0.141088 -0.717946,0.169677 -0.297838,0.05094 -0.307194,0.04407 -0.475006,-0.348634 -0.302291,-0.707418 -0.38019,-1.136385 -0.377729,-2.080104 0.0025,-1.019302 0.0481,-1.322952 0.527803,-3.526947 0.180945,-0.831351 0.35236,-1.73828 0.380915,-2.015397 0.02855,-0.277117 0.07172,-0.560535 0.09593,-0.629813 0.0635,-0.181787 0.239347,0.350031 0.569215,1.721486 0.458732,1.907206 0.737676,2.492481 1.370557,2.875631 0.44555,0.269741 0.847632,0.242682 1.55228,-0.104457 1.277445,-0.629329 1.984918,-0.280856 3.027979,1.491461 l 0.475179,0.807393 0.315236,-0.04699 c 0.792671,-0.118134 1.411378,-0.559247 1.747229,-1.245698 0.198547,-0.405817 0.219692,-0.533361 0.193235,-1.165698 -0.03425,-0.818859 -0.134779,-1.007928 -0.785767,-1.477988 -0.223873,-0.161651 -0.558453,-0.430514 -0.743515,-0.597473 l -0.33647,-0.30356 0.494312,-0.746127 c 0.608641,-0.918703 1.661698,-1.987412 2.761478,-2.802538 0.913804,-0.677282 3.333013,-2.204135 3.394657,-2.142494 0.04768,0.04766 -0.262787,0.520979 -0.929699,1.417313 -0.766572,1.030283 -1.071543,1.720653 -1.071543,2.425675 0,0.747818 0.138106,1.008999 1.132087,2.140961 1.290203,1.469292 1.51759,2.182395 1.031235,3.234016 l -0.224034,0.484412 0.248982,0.283571 c 0.644539,0.734091 2.127205,0.917283 2.709685,0.334805 0.284437,-0.284441 0.334239,-0.656325 0.217202,-1.621979 -0.134155,-1.106921 -0.104984,-1.193942 0.488729,-1.45799 1.197132,-0.532409 2.855458,-0.530183 5.984652,0.0081 1.085377,0.186685 2.086779,0.353831 2.225335,0.371437 0.250173,0.03178 0.249174,0.03331 -0.144053,0.218397 -0.217789,0.102514 -1.042606,0.35448 -1.832928,0.559917 -1.503145,0.390731 -2.07846,0.638744 -2.502996,1.079022 l -0.254222,0.263648 0.176242,0.50385 c 0.125785,0.3596 0.177912,0.720223 0.182079,1.259622 0.0051,0.661936 -0.02421,0.821277 -0.236097,1.283307 -0.286209,0.624085 -1.0056,1.337219 -1.644717,1.63042 -0.23062,0.1058 -0.418941,0.230374 -0.41849,0.276829 0.0013,0.148557 0.393197,0.914174 0.623257,1.218048 0.485767,0.641629 1.204313,0.843141 1.722014,0.482934 0.149352,-0.103918 0.487322,-0.507359 0.751034,-0.896533 0.630804,-0.930897 0.790874,-1.045385 1.461585,-1.045385 0.6812,0 1.166194,0.229694 1.86475,0.883163 0.646476,0.604747 1.128385,1.296801 2.184519,3.137134 0.905514,1.577873 1.062149,1.824749 1.371428,2.161479 0.116212,0.126528 0.195161,0.243612 0.175435,0.260185 -0.01972,0.01657 -0.540401,-0.244057 -1.157056,-0.579168 -2.939883,-1.597651 -4.472427,-1.495353 -5.000821,0.333806 -0.14419,0.499138 -0.388763,0.594873 -1.519706,0.594873 -0.508048,0 -1.161806,-0.0528 -1.452799,-0.117344 l -0.529073,-0.117338 -0.299937,0.285292 c -0.822986,0.782801 -0.807581,1.660007 0.04412,2.511701 0.753053,0.753052 1.883805,1.071896 2.866888,0.808387 0.540277,-0.144819 0.540787,-0.144377 0.666708,0.578714 0.218061,1.252212 0.102358,2.829899 -0.403204,5.497765 -0.135659,0.715886 -0.272745,1.500005 -0.304635,1.742482 -0.03191,0.242478 -0.08707,0.440868 -0.122612,0.440868 -0.124948,0 -0.500773,-0.977232 -0.798135,-2.075325 -0.165264,-0.610292 -0.371577,-1.275483 -0.458475,-1.47821 -0.302677,-0.70611 -0.924387,-1.233038 -1.454842,-1.233038 -0.106704,0 -0.47636,0.137638 -0.821452,0.305859 -0.794778,0.387433 -1.235586,0.409046 -1.784271,0.0875 -0.375817,-0.220245 -0.540627,-0.434337 -1.522213,-1.977418 -0.227667,-0.357897 -0.241224,-0.365179 -0.582487,-0.312747 -0.592778,0.09107 -1.076557,0.392574 -1.356346,0.845295 -0.224022,0.362489 -0.252275,0.480988 -0.249165,1.045087 0.003,0.504631 0.04917,0.735192 0.22423,1.114604 0.25188,0.545901 0.80147,1.135267 1.262073,1.353421 l 0.314152,0.148797 -0.286307,0.563246 c -0.591257,1.163169 -1.546111,2.09683 -3.538931,3.460378 -0.641254,0.438769 -1.516333,1.070816 -1.944612,1.404547 -0.428283,0.333734 -0.778698,0.589569 -0.778698,0.56853 z m 4.594207,-10.960018 c 2.774148,-0.650104 5.024028,-2.975532 5.685701,-5.876617 0.766245,-3.359563 -0.911222,-6.941049 -3.933273,-8.397773 -1.222191,-0.589132 -1.818593,-0.711947 -3.449497,-0.710345 -1.192519,0.0013 -1.549268,0.03203 -2.166666,0.187513 -2.719456,0.684795 -4.637165,2.630051 -5.358672,5.435649 -0.272902,1.061193 -0.272885,2.86262 3.8e-5,3.904831 0.528836,2.019473 1.828824,3.702295 3.620463,4.686674 0.620784,0.341072 1.757919,0.729206 2.477262,0.845546 0.323305,0.05229 0.682297,0.110813 0.797762,0.130046 0.395101,0.06583 1.6371,-0.04388 2.326882,-0.205524 z m -2.998685,-0.712342 c -3.772572,-0.762777 -6.223335,-3.963935 -5.793148,-7.566927 0.200361,-1.678078 0.751829,-2.885301 1.802405,-3.945666 1.355419,-1.368038 3.129789,-2.049174 5.338129,-2.049174 2.810066,0 5.046852,1.374768 6.205925,3.814264 0.465492,0.979722 0.628755,1.7445 0.619879,2.903731 -0.02672,3.488738 -2.101147,6.189428 -5.25152,6.836889 -0.772036,0.15867 -2.154842,0.161928 -2.92167,0.0069 z"
           id="path303" /></g></g></g></svg>
